<svg width="26" height="21" viewBox="0 0 26 21" fill="none" xmlns="http://www.w3.org/2000/svg">
<path d="M25.4709 5.574V16.5386C25.4709 17.5587 25.0656 18.537 24.3443 19.2583C23.623 19.9795 22.6448 20.3848 21.6247 20.3848H4.70162C3.68156 20.3848 2.70327 19.9795 1.98198 19.2583C1.26069 18.537 0.855469 17.5587 0.855469 16.5386V5.574L12.7724 12.5863C12.8908 12.6561 13.0257 12.693 13.1632 12.693C13.3006 12.693 13.4355 12.6561 13.5539 12.5863L25.4709 5.574ZM21.6247 0.384766C22.5711 0.384617 23.4843 0.733391 24.1896 1.36437C24.895 1.99534 25.3429 2.86421 25.4478 3.80477L13.1632 11.0309L0.878546 3.80477C0.983405 2.86421 1.43135 1.99534 2.13669 1.36437C2.84203 0.733391 3.75524 0.384617 4.70162 0.384766H21.6247Z" fill="white"/>
</svg>
