<svg width="25" height="25" viewBox="0 0 25 25" fill="none" xmlns="http://www.w3.org/2000/svg">
<path d="M23.15 13.7311C23.5998 13.2822 23.8478 12.685 23.8481 12.0495C23.8484 11.414 23.6011 10.8166 23.1518 10.3672C22.9229 10.1383 22.6582 9.96618 22.3753 9.85047L23.3514 8.87802C23.8023 8.42932 24.051 7.83194 24.0517 7.19585C24.0524 6.55975 23.8052 5.96174 23.3554 5.51197L23.3301 5.48669C22.9831 5.13962 22.554 4.92258 22.1045 4.8356C22.1317 4.69107 22.1462 4.54307 22.1463 4.39274C22.1471 3.75675 21.8998 3.15878 21.4501 2.70911L21.419 2.67809C20.97 2.22904 20.373 1.98175 19.738 1.98175C19.3092 1.98175 18.898 2.09488 18.5378 2.30632C18.4205 1.98872 18.2354 1.69745 17.9891 1.45124L17.9686 1.43069C17.0418 0.503964 15.5335 0.503818 14.6066 1.43074L8.25368 7.78373L9.04278 4.52501C9.35455 3.23743 8.65101 1.92448 7.40629 1.47091C6.70582 1.21564 5.9285 1.27378 5.27371 1.6302C4.61891 1.98662 4.1482 2.60791 3.98224 3.33478L3.87403 3.8089C3.35647 6.07604 2.50094 8.35427 1.33122 10.5802C0.4547 12.2481 0.120876 14.1987 0.391247 16.0727C0.670968 18.0116 1.55294 19.7707 2.94185 21.1596C4.64677 22.8645 6.91278 23.8032 9.32367 23.8031H9.32981C11.7429 23.8015 14.0103 22.8597 15.7144 21.1511L17.5332 19.3274L23.15 13.7311ZM14.68 20.1194C13.2518 21.5514 11.3513 22.3408 9.32889 22.3421H9.32372C7.3032 22.3421 5.40378 21.5554 3.97488 20.1265C2.81071 18.9624 2.07152 17.4884 1.83719 15.8641C1.61045 14.2925 1.89007 12.6572 2.62449 11.2597C3.85304 8.92195 4.75269 6.5245 5.29835 4.13401L5.40655 3.65993C5.48028 3.33692 5.68116 3.07181 5.97218 2.91339C6.2632 2.75498 6.59498 2.73024 6.90621 2.84361C7.45133 3.04225 7.7595 3.61727 7.62295 4.1812L6.22191 9.96666C6.0557 10.563 6.82401 11.2273 7.44836 10.6551L15.6397 2.46381C15.997 2.10642 16.5784 2.10652 16.9351 2.46313L16.9555 2.48363C17.1286 2.65676 17.2239 2.8868 17.2239 3.13161C17.2239 3.37641 17.1285 3.60651 16.9555 3.77963C15.6222 5.11289 13.2308 7.50435 11.922 8.81311C11.6367 9.09833 11.6367 9.56086 11.922 9.84614C12.2073 10.1314 12.6698 10.1314 12.955 9.84614C13.7637 9.03751 18.4094 4.39186 19.0901 3.71116C19.2632 3.53804 19.4933 3.44274 19.7381 3.44274C19.9829 3.44274 20.213 3.53804 20.3861 3.71116L20.4171 3.74218C20.5905 3.91555 20.6858 4.14604 20.6855 4.39118C20.6853 4.63633 20.5894 4.86662 20.4156 5.03969C18.584 6.86397 16.0791 9.35809 14.2659 11.1651C13.9801 11.4498 13.9792 11.9123 14.2639 12.1982C14.4066 12.3414 14.594 12.4131 14.7814 12.4131C14.9679 12.4131 15.1544 12.3422 15.2969 12.2002C16.5157 10.9861 19.8364 7.67825 21.0027 6.51821C21.36 6.16267 21.9407 6.16335 22.2972 6.51972L22.3224 6.545C22.4958 6.71841 22.5911 6.9489 22.5908 7.19409C22.5905 7.43929 22.4946 7.66958 22.3206 7.84275C20.544 9.61239 17.7303 12.4147 15.9692 14.1703C15.6834 14.4551 15.6826 14.9175 15.9673 15.2034C16.11 15.3466 16.2974 15.4183 16.4848 15.4183C16.6712 15.4183 16.8578 15.3473 17.0003 15.2053L20.3499 11.8683L20.8261 11.3969C21.1834 11.0433 21.7633 11.0449 22.1188 11.4002C22.292 11.5735 22.3873 11.8037 22.3872 12.0487C22.3871 12.2936 22.2915 12.5239 22.1184 12.6965L16.5004 18.2941L14.68 20.1194Z" fill="#227DF2"/>
<path d="M22.2683 18.8018C22.4271 18.431 22.2551 18.0016 21.8843 17.8429C21.5134 17.684 21.084 17.856 20.9253 18.2269C20.6802 18.7993 20.3305 19.3151 19.8858 19.7598C19.3425 20.303 18.7005 20.7008 17.9776 20.9419C17.5949 21.0695 17.3881 21.4832 17.5157 21.866C17.6178 22.172 17.9028 22.3655 18.2086 22.3655C18.2852 22.3655 18.3631 22.3534 18.4398 22.3278C19.3797 22.0143 20.2138 21.4979 20.9189 20.7928C21.4957 20.2159 21.9497 19.546 22.2683 18.8018Z" fill="#227DF2"/>
<path d="M24.1988 19.2048C23.828 19.0458 23.3985 19.2175 23.2396 19.5883C22.8983 20.3845 22.4116 21.1018 21.7931 21.7203C21.0737 22.4397 20.2275 22.9771 19.2781 23.3174C18.8984 23.4536 18.7008 23.8718 18.837 24.2516C18.9439 24.5499 19.225 24.7357 19.5247 24.7357C19.6065 24.7357 19.6897 24.7219 19.7712 24.6927C20.9252 24.2789 21.953 23.6264 22.8261 22.7534C23.5766 22.0029 24.1675 21.1317 24.5823 20.1639C24.7413 19.7932 24.5696 19.3637 24.1988 19.2048Z" fill="#227DF2"/>
</svg>
