<svg
   xmlns:svg="http://www.w3.org/2000/svg"
   xmlns="http://www.w3.org/2000/svg"
   height="100"
   width="100"
   xml:space="preserve"
   viewBox="0 0 100 100"
   version="1.1">
<path
   style="stroke-width:0.51952368"
   id="path2"
   d="M 6.2493471,99.008713 H 93.750127 c 3.45016,0 6.249873,-2.800233 6.249873,-6.24987 0,-3.450157 -2.800233,-6.24987 -6.249873,-6.24987 H 6.2493471 c -3.4501569,0 -6.2498701,2.800232 -6.2498701,6.24987 0,3.449637 2.8002327,6.24987 6.2498701,6.24987 z" /><path
   style="stroke-width:0.51952368"
   id="path4"
   d="M 93.75013,43.75013 H 26.24935 c -3.450157,0 -6.24987,2.800233 -6.24987,6.24987 0,3.449638 2.800233,6.249871 6.24987,6.249871 H 93.75013 C 97.20029,56.249871 100,53.449638 100,50 c 0,-3.449637 -2.79971,-6.24987 -6.24987,-6.24987 z" /><path
   style="stroke-width:0.51952368"
   id="path6"
   d="M 93.75013,0 H 46.74961 c -3.45016,0 -6.24987,2.800233 -6.24987,6.24987 0,3.4501569 2.80023,6.24987 6.24987,6.24987 H 93.75013 C 97.20029,12.49974 100,9.6995079 100,6.24987 100.00052,2.799713 97.20029,0 93.75013,0 Z" />
</svg>